<svg xmlns="http://www.w3.org/2000/svg"
  width="1254" height="1254" viewBox="0 0 1254 1254"
  fill="none" role="img" aria-labelledby="title desc">
  <title id="title">GitHub Intelligence logo</title>
  <desc id="desc">Gold GitHub engineering intelligence mark with a green signal bar.</desc>

  <defs>
    <linearGradient id="gold" x1="0" y1="0" x2="1" y2="1">
      <stop offset="0%" stop-color="#FFF0A0"/>
      <stop offset="22%" stop-color="#F5CE62"/>
      <stop offset="58%" stop-color="#D8A93F"/>
      <stop offset="100%" stop-color="#8C6824"/>
    </linearGradient>

    <linearGradient id="goldSoft" x1="0" y1="0" x2="0.9" y2="1">
      <stop offset="0%" stop-color="#FFE58A"/>
      <stop offset="48%" stop-color="#D6A83D"/>
      <stop offset="100%" stop-color="#806020"/>
    </linearGradient>

    <linearGradient id="green" x1="0" y1="0" x2="0.9" y2="1">
      <stop offset="0%" stop-color="#8BFFD6"/>
      <stop offset="28%" stop-color="#3DE0B0"/>
      <stop offset="68%" stop-color="#16B989"/>
      <stop offset="100%" stop-color="#08775F"/>
    </linearGradient>

    <linearGradient id="edgeGold" x1="0" y1="0" x2="1" y2="1">
      <stop offset="0%" stop-color="#FFF6C8" stop-opacity=".9"/>
      <stop offset="55%" stop-color="#F0C85B" stop-opacity=".55"/>
      <stop offset="100%" stop-color="#6B4D18" stop-opacity=".8"/>
    </linearGradient>

    <filter id="softShadow" x="-30%" y="-30%" width="160%" height="160%">
      <feGaussianBlur in="SourceAlpha" stdDeviation="5" result="blur"/>
      <feOffset dy="5" result="offset"/>
      <feComponentTransfer>
        <feFuncA type="linear" slope=".32"/>
      </feComponentTransfer>
      <feMerge>
        <feMergeNode/>
        <feMergeNode in="SourceGraphic"/>
      </feMerge>
    </filter>

    <filter id="greenGlow" x="-50%" y="-50%" width="200%" height="200%">
      <feGaussianBlur stdDeviation="7" result="blur"/>
      <feColorMatrix in="blur" type="matrix"
        values="0 0 0 0 0.1
                0 0 0 0 0.95
                0 0 0 0 0.65
                0 0 0 .35 0"/>
      <feMerge>
        <feMergeNode/>
        <feMergeNode in="SourceGraphic"/>
      </feMerge>
    </filter>
  </defs>

  <g fill-rule="evenodd" clip-rule="evenodd">
    <g filter="url(#softShadow)" fill="url(#gold)" stroke="url(#edgeGold)" stroke-width="2.2" stroke-linejoin="round">
      <path d="M 632.00 766.00 L 618.00 770.00 L 610.00 774.00 L 604.00 779.00 L 596.00 789.00 L 591.00 803.00 L 591.00 1020.00 L 597.00 1034.00 L 609.00 1044.00 L 622.00 1048.00 L 643.00 1048.00 L 656.00 1045.00 L 671.00 1036.00 L 679.00 1026.00 L 684.00 1011.00 L 684.00 800.00 L 681.00 789.00 L 676.00 781.00 L 668.00 773.00 L 650.00 766.00 Z"/><path d="M 759.00 689.00 L 740.00 690.00 L 730.00 693.00 L 723.00 697.00 L 710.00 710.00 L 707.00 716.00 L 704.00 728.00 L 704.00 1014.00 L 707.00 1025.00 L 716.00 1035.00 L 723.00 1039.00 L 734.00 1042.00 L 755.00 1041.00 L 768.00 1037.00 L 777.00 1032.00 L 788.00 1022.00 L 794.00 1008.00 L 794.00 1001.00 L 795.00 1000.00 L 795.00 939.00 L 794.00 938.00 L 795.00 933.00 L 795.00 730.00 L 794.00 729.00 L 794.00 719.00 L 791.00 710.00 L 780.00 697.00 L 769.00 691.00 Z"/><path d="M 864.00 597.00 L 854.00 597.00 L 844.00 599.00 L 829.00 606.00 L 822.00 612.00 L 817.00 619.00 L 813.00 627.00 L 811.00 635.00 L 811.00 1002.00 L 813.00 1007.00 L 820.00 1014.00 L 829.00 1017.00 L 837.00 1016.00 L 847.00 1012.00 L 879.00 992.00 L 894.00 977.00 L 898.00 970.00 L 901.00 959.00 L 901.00 632.00 L 897.00 618.00 L 889.00 608.00 L 879.00 601.00 Z"/><path d="M 733.00 245.00 L 690.00 236.00 L 667.00 234.00 L 666.00 233.00 L 653.00 233.00 L 652.00 232.00 L 618.00 232.00 L 617.00 233.00 L 602.00 233.00 L 601.00 234.00 L 577.00 236.00 L 531.00 246.00 L 491.00 259.00 L 458.00 273.00 L 419.00 293.00 L 388.00 312.00 L 349.00 341.00 L 324.00 363.00 L 296.00 392.00 L 274.00 419.00 L 258.00 442.00 L 256.00 447.00 L 246.00 462.00 L 229.00 497.00 L 227.00 499.00 L 223.00 512.00 L 214.00 532.00 L 202.00 575.00 L 195.00 615.00 L 194.00 636.00 L 193.00 637.00 L 193.00 682.00 L 194.00 683.00 L 195.00 706.00 L 202.00 747.00 L 210.00 777.00 L 226.00 819.00 L 245.00 856.00 L 265.00 887.00 L 291.00 920.00 L 324.00 954.00 L 354.00 979.00 L 388.00 1002.00 L 429.00 1024.00 L 446.00 1030.00 L 451.00 1033.00 L 483.00 1043.00 L 505.00 1048.00 L 515.00 1048.00 L 518.00 1044.00 L 518.00 1040.00 L 506.00 1021.00 L 497.00 1004.00 L 485.00 972.00 L 480.00 944.00 L 480.00 922.00 L 484.00 897.00 L 493.00 872.00 L 505.00 850.00 L 515.00 835.00 L 528.00 819.00 L 530.00 812.00 L 527.00 808.00 L 524.00 807.00 L 523.00 808.00 L 498.00 809.00 L 466.00 804.00 L 452.00 800.00 L 420.00 785.00 L 396.00 768.00 L 378.00 751.00 L 361.00 728.00 L 349.00 703.00 L 344.00 687.00 L 341.00 669.00 L 341.00 642.00 L 342.00 641.00 L 343.00 627.00 L 352.00 598.00 L 359.00 584.00 L 369.00 569.00 L 389.00 549.00 L 389.00 543.00 L 387.00 539.00 L 384.00 525.00 L 384.00 493.00 L 386.00 480.00 L 393.00 456.00 L 400.00 440.00 L 408.00 428.00 L 413.00 428.00 L 434.00 433.00 L 447.00 438.00 L 461.00 446.00 L 474.00 456.00 L 494.00 477.00 L 499.00 477.00 L 525.00 469.00 L 547.00 467.00 L 548.00 466.00 L 597.00 467.00 L 618.00 471.00 L 637.00 477.00 L 643.00 477.00 L 661.00 460.00 L 683.00 445.00 L 711.00 433.00 L 722.00 431.00 L 726.00 429.00 L 740.00 428.00 L 744.00 436.00 L 749.00 454.00 L 752.00 473.00 L 752.00 483.00 L 753.00 484.00 L 753.00 509.00 L 751.00 522.00 L 745.00 542.00 L 740.00 551.00 L 740.00 556.00 L 748.00 566.00 L 755.00 579.00 L 762.00 602.00 L 763.00 635.00 L 766.00 638.00 L 770.00 638.00 L 797.00 617.00 L 830.00 584.00 L 847.00 562.00 L 858.00 544.00 L 865.00 530.00 L 871.00 514.00 L 873.00 504.00 L 873.00 322.00 L 871.00 318.00 L 863.00 310.00 L 818.00 280.00 L 774.00 259.00 Z"/>
    </g>

    <g filter="url(#greenGlow)" fill="url(#green)" stroke="#19C99A" stroke-opacity=".65" stroke-width="2.2" stroke-linejoin="round">
      <path d="M 986.00 373.00 L 969.00 373.00 L 960.00 375.00 L 948.00 380.00 L 939.00 386.00 L 927.00 400.00 L 922.00 410.00 L 919.00 423.00 L 919.00 951.00 L 925.00 957.00 L 931.00 957.00 L 935.00 955.00 L 958.00 938.00 L 986.00 914.00 L 1008.00 892.00 L 1025.00 870.00 L 1030.00 860.00 L 1033.00 848.00 L 1033.00 825.00 L 1032.00 824.00 L 1033.00 823.00 L 1033.00 801.00 L 1032.00 800.00 L 1033.00 797.00 L 1033.00 771.00 L 1032.00 770.00 L 1032.00 746.00 L 1033.00 745.00 L 1033.00 657.00 L 1032.00 656.00 L 1032.00 646.00 L 1033.00 645.00 L 1033.00 605.00 L 1032.00 604.00 L 1032.00 595.00 L 1033.00 594.00 L 1033.00 488.00 L 1032.00 487.00 L 1033.00 483.00 L 1033.00 456.00 L 1032.00 455.00 L 1033.00 426.00 L 1029.00 406.00 L 1022.00 394.00 L 1012.00 384.00 L 1006.00 380.00 Z"/><path d="M 981.00 227.00 L 963.00 229.00 L 951.00 233.00 L 936.00 242.00 L 925.00 253.00 L 919.00 262.00 L 913.00 277.00 L 911.00 287.00 L 911.00 301.00 L 913.00 313.00 L 919.00 327.00 L 925.00 336.00 L 936.00 347.00 L 947.00 354.00 L 960.00 359.00 L 970.00 361.00 L 984.00 361.00 L 994.00 359.00 L 1005.00 355.00 L 1018.00 347.00 L 1032.00 332.00 L 1039.00 319.00 L 1043.00 304.00 L 1042.00 278.00 L 1034.00 259.00 L 1025.00 247.00 L 1017.00 240.00 L 1003.00 232.00 L 994.00 229.00 Z"/>
    </g>
  </g>

  <!-- restrained highlight that keeps the mark dimensional without raster effects -->
  <g fill="none" stroke-linecap="round" pointer-events="none">
    <path d="M 286 555 C 318 378 466 262 637 245 C 724 237 800 257 858 292"
          stroke="#FFF4B7" stroke-opacity=".28" stroke-width="4"/>
    <path d="M 951 401 L 951 875"
          stroke="#B7FFE8" stroke-opacity=".22" stroke-width="4"/>
  </g>
</svg>
